<svg width="500" height="60" viewBox="0 0 667 103" fill="none" xmlns="http://www.w3.org/2000/svg">
<g clip-path="url(#clip0_46_576)">
<mask id="mask0_46_576" style="mask-type:luminance" maskUnits="userSpaceOnUse" x="0" y="8" width="364" height="77">
<path d="M364 8H0V85H364V8Z" fill="white"/>
</mask>
<g mask="url(#mask0_46_576)">
<path d="M212.716 52.6616H200.625V58.3336H212.716V52.6616Z" fill="white"/>
<path d="M157.462 43.3579H163.946V67.3922H170.348V43.3579H176.852V37.7265H157.462V43.3579ZM148.552 48.8052H137.114V37.7265H130.712V67.3922H137.114V54.5386H148.552V67.3922H154.954V37.7265H148.552V48.8052ZM103.595 37.7265H97.1725V61.7816H86.5296V37.7265H80.1274V67.3922H101.087V73.9009H107.061V61.7816H103.595V37.7265ZM300.326 67.3922H317.125V61.7816H306.729V54.6814H316.698V49.0299H306.729V43.3579H317.125V37.7265H300.326V67.3922ZM291.559 51.4169C292.412 50.7857 293.099 49.9563 293.562 49.0001C294.023 48.044 294.246 46.9899 294.209 45.9286C294.24 44.7351 294.002 43.5499 293.512 42.4615C293.02 41.3734 292.289 40.4104 291.375 39.6446C289.215 38.2305 286.651 37.564 284.077 37.747H276.533V67.3922H286.625C289.367 67.5643 292.075 66.6976 294.209 64.9644C295.047 64.1829 295.709 63.2342 296.155 62.1796C296.6 61.1252 296.82 59.9886 296.799 58.8434C296.835 57.7949 296.66 56.7492 296.283 55.7708C295.903 54.7921 295.33 53.9008 294.596 53.1512C293.745 52.3329 292.7 51.7435 291.559 51.4373V51.4169ZM282.935 43.0926H284.179C285.164 43.0515 286.141 43.3151 286.971 43.8475C287.353 44.1348 287.657 44.5126 287.856 44.9473C288.058 45.3819 288.144 45.8593 288.113 46.3367C288.141 47.0164 287.971 47.6901 287.623 48.275C287.186 48.9019 286.533 49.3453 285.79 49.5195C285.25 49.6623 284.695 49.7311 284.137 49.7234H282.935V43.0926ZM289.867 59.9044C289.605 60.4843 289.17 60.9688 288.623 61.2917C287.489 61.8437 286.232 62.0968 284.973 62.0264H282.935V54.9262H284.627C285.881 54.8381 287.138 55.0189 288.317 55.4567C288.99 55.7294 289.54 56.2368 289.867 56.8849C290.098 57.3549 290.215 57.8713 290.213 58.3947C290.223 58.9493 290.111 59.4992 289.888 60.0063L289.867 59.9044ZM109.732 67.3922H126.532V61.7816H116.215V54.6814H126.186V49.0299H116.215V43.3579H126.614V37.7265H109.732V67.3922ZM344.569 37.7265V43.3579H351.074V67.3922H357.474V43.3579H363.979V37.7265H344.569ZM196.017 40.0323C195.004 39.1229 193.788 38.4718 192.469 38.1346C191.046 37.8104 189.586 37.6665 188.127 37.7064H179.421V67.3922H185.843V56.7012H189.003C190.382 56.7877 191.764 56.5955 193.067 56.1364C194.37 55.6771 195.567 54.9605 196.588 54.0285C198.251 52.1877 199.142 49.7765 199.075 47.2955C199.105 45.9358 198.846 44.5851 198.315 43.3332C197.784 42.081 196.994 40.956 195.997 40.0323H196.017ZM191.103 50.2335C190.082 50.8938 188.868 51.1885 187.658 51.0701H185.761V43.3579H187.311C188.618 43.2469 189.927 43.5387 191.063 44.1943C191.524 44.5392 191.896 44.9898 192.148 45.5078C192.4 46.0261 192.524 46.5969 192.51 47.1731C192.518 47.7559 192.396 48.3329 192.152 48.8623C191.909 49.3918 191.551 49.8601 191.103 50.2335ZM335.252 37.0739C331.256 36.892 327.349 38.3003 324.384 40.9911C322.831 42.4859 321.606 44.2885 320.789 46.2842C319.969 48.2795 319.576 50.4238 319.634 52.5798C319.595 54.6339 319.972 56.6744 320.744 58.5779C321.517 60.4816 322.666 62.2085 324.122 63.6546C325.581 65.1003 327.317 66.2351 329.226 66.9897C331.138 67.7446 333.18 68.1036 335.231 68.0452C337.776 68.0807 340.293 67.4849 342.55 66.3108L342.754 66.2088V58.3333L342.06 59.1495C341.275 60.0961 340.29 60.8576 339.177 61.3793C338.064 61.9013 336.849 62.1711 335.618 62.1693C333.241 62.1817 330.939 61.3175 329.155 59.7414C328.192 58.8423 327.43 57.7473 326.924 56.5297C326.416 55.312 326.178 54.0001 326.22 52.6818C326.202 50.1934 327.095 47.7843 328.726 45.9082C329.564 44.9714 330.593 44.2261 331.743 43.7227C332.892 43.2193 334.139 42.9694 335.393 42.9907C336.663 43.0042 337.915 43.2899 339.067 43.8284C340.217 44.3669 341.238 45.1456 342.06 46.1121L342.754 46.9079V39.0119L342.55 38.9099C340.319 37.6952 337.813 37.0704 335.273 37.0941L335.252 37.0739ZM222.4 56.395V37.7265H215.998V67.3922H220.912L235.816 48.6422V67.3922H242.218V37.7265H237.223L222.4 56.395ZM265.052 48.8052H253.615V37.7265H247.213V67.3922H253.615V54.5386H265.052V67.3922H271.455V37.7265H265.052V48.8052Z" fill="white"/>
<path d="M94.0733 19.1195C92.396 17.7211 90.2605 16.9943 88.0791 17.0792H85.3674V12.6926H94.1754V8H80.1274V31.7692H88.0995C89.2868 31.7895 90.47 31.6243 91.6065 31.2795C92.9823 30.8552 94.1796 29.9872 95.0113 28.8108C95.8805 27.5442 96.3429 26.0423 96.3366 24.5058C96.3628 23.4968 96.1727 22.4939 95.7786 21.5648C95.3847 20.6356 94.7963 19.8018 94.0529 19.1195H94.0733ZM90.3016 26.2401C89.3861 26.9329 88.2425 27.2536 87.1005 27.1378H85.3674V21.8127H87.1819C88.2951 21.7018 89.4075 22.0313 90.2811 22.7308C90.5171 22.9691 90.702 23.253 90.8248 23.5652C90.9473 23.8774 91.0052 24.2113 90.9947 24.5466C91.0063 24.8632 90.9523 25.1788 90.8366 25.4737C90.7208 25.7685 90.5456 26.0364 90.3217 26.2605L90.3016 26.2401ZM155.301 19.0583L165.352 8H158.665L150.876 17.0996V8H145.555V31.7692H150.876V21.7718L158.869 31.8508H165.801L155.301 19.0583ZM106.511 8L96.4589 31.7692H102.147L104.186 26.9542H112.913L114.951 31.7692H120.599L110.792 8H106.511ZM105.899 22.4655L108.611 15.6714L111.261 22.4655H105.899ZM136.482 16.8548H127.47V8H122.23V31.7692H127.491V21.5678H136.4V31.7692H141.64V8H136.38L136.482 16.8548Z" fill="white"/>
<path d="M32.3361 8V25.2607L46.3841 8H32.3361Z" fill="white"/>
<path d="M56.3949 10.3871L32.3361 39.9712V47.3367C32.3361 47.1325 32.3361 46.9286 32.4382 46.7244L32.7441 45.4186C33.2866 43.54 34.1563 41.772 35.313 40.1956L36.1285 39.2163C37.0283 38.2865 38.0503 37.4833 39.1664 36.8291C39.7614 36.5211 40.3742 36.2487 41.0014 36.0129C42.3225 35.6143 43.6999 35.4351 45.0792 35.4826L46.4655 35.6661C47.5583 35.9154 48.6139 36.3065 49.6054 36.8291C50.1637 37.1567 50.7013 37.5178 51.2161 37.9105C52.697 39.1518 53.9228 40.6693 54.825 42.3787L55.3754 43.5621C55.8012 44.8116 56.1218 46.0946 56.3336 47.3977L56.3949 10.3871Z" fill="white"/>
<path d="M44.4264 38.1553C39.1662 38.1553 34.8846 43.5416 34.8846 50.1522C34.8846 56.7625 39.1662 62.1692 44.4264 62.1692C49.6868 62.1692 53.9888 56.783 53.9888 50.1522C53.9888 43.5212 49.7072 38.1553 44.4264 38.1553ZM44.4264 58.2927C41.2661 58.2927 38.6767 54.6408 38.6767 50.1318C38.6767 45.6227 41.2459 41.9706 44.4264 41.9706C47.607 41.9706 50.1964 45.6227 50.1964 50.1318C50.1964 54.6408 47.607 58.2927 44.4264 58.2927Z" fill="white"/>
<path d="M32.7644 54.9264L32.4586 53.6206L32.3567 53.0086V67.4334H56.4153V53.1515C56.1162 54.8396 55.6095 56.4845 54.9066 58.0481L54.254 59.1702C53.3257 60.6143 52.1447 61.8793 50.7675 62.9039L49.6666 63.5977C48.6746 64.1197 47.6193 64.5105 46.5268 64.7607C45.853 64.8775 45.1716 64.9455 44.4878 64.9646C43.56 64.9394 42.6375 64.8164 41.7353 64.5974C41.0898 64.4049 40.4566 64.1733 39.8391 63.9036C38.4541 63.171 37.2057 62.2048 36.1488 61.0474L35.3129 60.0679C34.1701 58.516 33.3078 56.776 32.7644 54.9264Z" fill="white"/>
<path d="M0 65.1279L24.0587 35.5439V28.0765C24.0587 28.2805 24.0587 28.4845 24.0587 28.6885L23.7325 29.9943C23.187 31.8719 22.3175 33.6395 21.1635 35.2174L20.3276 36.1968C19.4157 37.1442 18.3719 37.9551 17.2285 38.6043C16.6352 38.916 16.0222 39.1884 15.3935 39.4205C14.0731 39.8225 12.695 40.0017 11.3157 39.9507L9.92932 39.7673C8.81537 39.5238 7.73888 39.1327 6.72829 38.6043C6.16302 38.2774 5.6183 37.9163 5.09718 37.5228C3.62395 36.2794 2.40537 34.762 1.50877 33.0547L0.958271 31.8714C0.533671 30.6214 0.213155 29.3385 0 28.0356V65.1279Z" fill="white"/>
<path d="M11.9688 37.2576C17.2291 37.2576 21.5107 31.8713 21.5107 25.2608C21.5107 18.6503 17.2495 13.2436 11.9688 13.2436C6.68812 13.2436 2.42688 18.6299 2.42688 25.2608C2.42688 31.8917 6.70852 37.2576 11.9688 37.2576ZM11.9688 17.1201C15.1494 17.1201 17.7184 20.7722 17.7184 25.2812C17.7184 29.7902 15.129 33.4423 11.9688 33.4423C8.80854 33.4423 6.21919 29.7902 6.21919 25.2812C6.21919 20.7722 8.80854 17.1201 11.9688 17.1201Z" fill="white"/>
<path d="M23.6305 20.5069L23.9568 21.8127C23.9568 22.0167 23.9568 22.2207 23.9568 22.4043V8H0V22.2819C0.297996 20.5934 0.804812 18.9485 1.50877 17.3853L2.1612 16.2631C3.09591 14.8536 4.2688 13.6178 5.62728 12.611L6.72829 11.9173C7.72057 11.3962 8.77591 11.0053 9.86814 10.7544C10.5422 10.6392 11.2235 10.571 11.907 10.5503C12.8349 10.5748 13.7576 10.6979 14.6595 10.9176C15.304 11.1133 15.937 11.3449 16.5556 11.6113C17.9279 12.2957 19.1754 13.2061 20.246 14.3044L21.0819 15.2838C22.2328 16.8636 23.1019 18.6307 23.6509 20.5069H23.6305Z" fill="white"/>
<path d="M24.0381 50.1522L10.0107 67.3925H24.0381V50.1522Z" fill="white"/>
<path d="M49.6053 8L1.38605 67.3925H6.7075L55.0289 8H49.6053Z" fill="white"/>
<path d="M29.9302 63.312H23.7115V67.3925H29.9302V63.312Z" fill="white"/>
<path d="M58.8012 63.312V67.3925C60.1572 67.492 61.4196 68.1211 62.3163 69.1441C63.2127 70.1671 63.6709 71.5021 63.5924 72.8605C63.595 74.2503 63.0663 75.5887 62.1149 76.6014C61.1635 77.6141 59.8615 78.2248 58.4749 78.3079C55.7902 78.1518 53.1341 77.6722 50.5641 76.8797L25.9956 70.759C12.4779 67.5353 0 71.2486 0 80.0829H4.07774C4.07774 76.8186 10.4186 74.6355 23.9772 78.0426L48.9329 84.1023C53.5609 85.5177 58.5338 85.3016 63.0215 83.4903C64.7752 82.5429 66.2399 81.1378 67.2594 79.4241C68.2788 77.7105 68.8154 75.7525 68.812 73.7582C68.8526 72.4065 68.6245 71.0603 68.1405 69.7978C67.6566 68.5353 66.9268 67.3816 65.9935 66.404C65.0602 65.4263 63.9417 64.6441 62.7036 64.1027C61.4652 63.5613 60.1318 63.2716 58.7808 63.2507L58.8012 63.312Z" fill="white"/>
</g>
</g>
<path d="M383 85.0061V2.99999" stroke="white" stroke-width="6" stroke-linecap="round"/>
<path d="M417.885 50.14H411.315V64H406.905V32.5H411.315V46.18H417.975L427.875 32.5H432.69L421.44 47.755L433.23 64H428.1L417.885 50.14ZM459.087 40.15V60.76C459.087 64.93 458.112 68.005 456.162 69.985C454.212 71.995 451.287 73 447.387 73C445.257 73 443.217 72.685 441.267 72.055C439.347 71.455 437.772 70.585 436.542 69.445L438.657 66.115C439.707 67.075 440.967 67.825 442.437 68.365C443.937 68.905 445.512 69.175 447.162 69.175C449.772 69.175 451.692 68.515 452.922 67.195C454.152 65.905 454.767 63.91 454.767 61.21V59.455C453.897 60.595 452.772 61.48 451.392 62.11C450.012 62.71 448.512 63.01 446.892 63.01C443.712 63.01 441.207 62.14 439.377 60.4C437.547 58.66 436.632 56.08 436.632 52.66V40.15H440.952V52.165C440.952 54.445 441.507 56.185 442.617 57.385C443.727 58.555 445.317 59.14 447.387 59.14C449.667 59.14 451.467 58.45 452.787 57.07C454.107 55.69 454.767 53.74 454.767 51.22V40.15H459.087ZM487.876 40.15V64H483.556V43.93H473.296L473.026 49.24C472.876 52.45 472.591 55.135 472.171 57.295C471.751 59.425 471.061 61.135 470.101 62.425C469.141 63.715 467.806 64.36 466.096 64.36C465.316 64.36 464.431 64.225 463.441 63.955L463.711 60.31C464.101 60.4 464.461 60.445 464.791 60.445C465.991 60.445 466.891 59.92 467.491 58.87C468.091 57.82 468.481 56.575 468.661 55.135C468.841 53.695 469.006 51.64 469.156 48.97L469.561 40.15H487.876ZM506.174 64.54C502.784 64.54 500.174 63.715 498.344 62.065C496.544 60.415 495.644 58.075 495.644 55.045V40.15H499.964V49.375C500.744 48.595 501.794 47.995 503.114 47.575C504.464 47.125 505.919 46.9 507.479 46.9C510.449 46.9 512.759 47.65 514.409 49.15C516.059 50.65 516.884 52.72 516.884 55.36C516.884 58.21 515.939 60.46 514.049 62.11C512.159 63.73 509.534 64.54 506.174 64.54ZM506.219 61.255C508.169 61.255 509.699 60.73 510.809 59.68C511.919 58.63 512.474 57.22 512.474 55.45C512.474 53.77 511.934 52.45 510.854 51.49C509.774 50.53 508.259 50.05 506.309 50.05C504.869 50.05 503.594 50.335 502.484 50.905C501.374 51.475 500.534 52.27 499.964 53.29V55.405C499.964 57.235 500.519 58.675 501.629 59.725C502.739 60.745 504.269 61.255 506.219 61.255ZM552.387 39.925C555.387 39.925 557.757 40.795 559.497 42.535C561.267 44.275 562.152 46.855 562.152 50.275V64H557.832V50.77C557.832 48.46 557.292 46.72 556.212 45.55C555.162 44.38 553.647 43.795 551.667 43.795C549.477 43.795 547.737 44.485 546.447 45.865C545.157 47.215 544.512 49.165 544.512 51.715V64H540.192V50.77C540.192 48.46 539.652 46.72 538.572 45.55C537.522 44.38 536.007 43.795 534.027 43.795C531.837 43.795 530.097 44.485 528.807 45.865C527.517 47.215 526.872 49.165 526.872 51.715V64H522.552V40.15H526.692V43.705C527.562 42.475 528.702 41.545 530.112 40.915C531.522 40.255 533.127 39.925 534.927 39.925C536.787 39.925 538.437 40.3 539.877 41.05C541.317 41.8 542.427 42.895 543.207 44.335C544.107 42.955 545.352 41.875 546.942 41.095C548.562 40.315 550.377 39.925 552.387 39.925ZM591.977 40.15V60.76C591.977 64.93 591.002 68.005 589.052 69.985C587.102 71.995 584.177 73 580.277 73C578.147 73 576.107 72.685 574.157 72.055C572.237 71.455 570.662 70.585 569.432 69.445L571.547 66.115C572.597 67.075 573.857 67.825 575.327 68.365C576.827 68.905 578.402 69.175 580.052 69.175C582.662 69.175 584.582 68.515 585.812 67.195C587.042 65.905 587.657 63.91 587.657 61.21V59.455C586.787 60.595 585.662 61.48 584.282 62.11C582.902 62.71 581.402 63.01 579.782 63.01C576.602 63.01 574.097 62.14 572.267 60.4C570.437 58.66 569.522 56.08 569.522 52.66V40.15H573.842V52.165C573.842 54.445 574.397 56.185 575.507 57.385C576.617 58.555 578.207 59.14 580.277 59.14C582.557 59.14 584.357 58.45 585.677 57.07C586.997 55.69 587.657 53.74 587.657 51.22V40.15H591.977ZM611.631 39.925C614.031 39.925 616.146 40.435 617.976 41.455C619.836 42.475 621.261 43.915 622.251 45.775C623.271 47.605 623.781 49.72 623.781 52.12C623.781 54.49 623.286 56.605 622.296 58.465C621.306 60.295 619.926 61.72 618.156 62.74C616.386 63.76 614.361 64.27 612.081 64.27C610.281 64.27 608.661 63.955 607.221 63.325C605.781 62.665 604.581 61.72 603.621 60.49V72.73H599.256V52.165C599.256 49.765 599.766 47.635 600.786 45.775C601.836 43.915 603.291 42.475 605.151 41.455C607.041 40.435 609.201 39.925 611.631 39.925ZM611.496 60.49C613.026 60.49 614.406 60.145 615.636 59.455C616.866 58.735 617.811 57.745 618.471 56.485C619.161 55.195 619.506 53.74 619.506 52.12C619.506 50.5 619.161 49.06 618.471 47.8C617.811 46.51 616.866 45.505 615.636 44.785C614.436 44.065 613.056 43.705 611.496 43.705C609.126 43.705 607.206 44.485 605.736 46.045C604.266 47.575 603.531 49.585 603.531 52.075C603.531 53.725 603.861 55.195 604.521 56.485C605.211 57.745 606.156 58.735 607.356 59.455C608.556 60.145 609.936 60.49 611.496 60.49ZM652.496 40.15V64H648.356V60.22C647.396 61.54 646.181 62.545 644.711 63.235C643.241 63.925 641.621 64.27 639.851 64.27C637.541 64.27 635.471 63.76 633.641 62.74C631.811 61.72 630.371 60.295 629.321 58.465C628.301 56.605 627.791 54.475 627.791 52.075C627.791 49.675 628.301 47.56 629.321 45.73C630.371 43.9 631.811 42.475 633.641 41.455C635.471 40.435 637.541 39.925 639.851 39.925C641.561 39.925 643.136 40.255 644.576 40.915C646.016 41.545 647.216 42.49 648.176 43.75V40.15H652.496ZM640.211 60.49C641.711 60.49 643.076 60.145 644.306 59.455C645.536 58.735 646.496 57.745 647.186 56.485C647.876 55.195 648.221 53.725 648.221 52.075C648.221 50.425 647.876 48.97 647.186 47.71C646.496 46.42 645.536 45.43 644.306 44.74C643.076 44.05 641.711 43.705 640.211 43.705C638.681 43.705 637.301 44.05 636.071 44.74C634.871 45.43 633.911 46.42 633.191 47.71C632.501 48.97 632.156 50.425 632.156 52.075C632.156 53.725 632.501 55.195 633.191 56.485C633.911 57.745 634.871 58.735 636.071 59.455C637.301 60.145 638.681 60.49 640.211 60.49Z" fill="white"/>
<defs>
<clipPath id="clip0_46_576">
<rect width="364" height="77" fill="white" transform="translate(0 8)"/>
</clipPath>
</defs>
</svg>
